<svg width="95" height="95" viewBox="0 0 95 95" fill="none" xmlns="http://www.w3.org/2000/svg">
<path d="M95 47.4845C95 73.7374 73.7133 95 47.5 95C21.2557 95 0 73.7374 0 47.4845C0 21.2626 21.2557 0 47.5 0C73.7133 0 95 21.2626 95 47.4845ZM92.8001 47.2365C92.8001 22.2855 72.5669 2.01468 47.593 2.01468C22.65 2.01468 2.41684 22.2855 2.41684 47.2365C2.41684 72.2186 22.65 92.4584 47.593 92.4584C72.5669 92.4584 92.8001 72.2186 92.8001 47.2365Z" fill="#D0215D"/>
<path d="M77.5553 46.7406C77.5553 63.3229 64.1388 76.7438 47.5618 76.7438C31.0158 76.7438 17.5684 63.3229 17.5684 46.7406C17.5684 30.1892 31.0158 16.7373 47.5618 16.7373C64.1388 16.7373 77.5553 30.1892 77.5553 46.7406ZM72.5358 45.0668C72.5358 31.212 61.3192 19.9918 47.4999 19.9918C33.6496 19.9918 22.433 31.212 22.433 45.0668C22.433 58.8906 33.6496 70.1109 47.4999 70.1109C61.3192 70.1109 72.5358 58.8906 72.5358 45.0668Z" fill="#7B1F67"/>
<path d="M93.9468 47.2366C93.9468 72.8696 73.1869 93.6363 47.5623 93.6363C21.9687 93.6363 1.17773 72.8696 1.17773 47.2366C1.17773 21.6346 21.9687 0.836914 47.5623 0.836914C73.1869 0.836914 93.9468 21.6346 93.9468 47.2366ZM76.3783 46.7097C76.3783 30.7782 63.4886 17.8842 47.5623 17.8842C31.636 17.8842 18.7462 30.7782 18.7462 46.7097C18.7462 62.6412 31.636 75.5351 47.5623 75.5351C63.4886 75.5351 76.3783 62.6412 76.3783 46.7097Z" fill="#0F0817"/>
<path d="M73.7442 45.0361C73.7442 59.5418 61.9699 71.3199 47.4689 71.3199C32.9679 71.3199 21.2246 59.5418 21.2246 45.0361C21.2246 30.5304 32.9679 18.7832 47.4689 18.7832C61.9699 18.7832 73.7442 30.5304 73.7442 45.0361Z" fill="#0F0817"/>
</svg>
