<svg width="190" height="390" viewBox="0 0 190 390" fill="none" xmlns="http://www.w3.org/2000/svg">
<g opacity="0.2">
<path d="M164.692 246.822C162.377 246.918 160.101 246.197 158.262 244.786C155.29 242.283 154.804 237.834 156.947 232.574L179.985 175.53C183.137 167.73 191.476 159.733 200.266 156.077C205.238 154.023 209.795 153.627 213.055 155.014L253.654 172.161C254.976 172.682 256.117 173.575 256.939 174.733C257.761 175.891 258.228 177.263 258.283 178.682C258.878 185.887 251.925 196.082 242.072 202.224L178.4 242.121C174.339 244.897 169.602 246.521 164.692 246.822ZM208.66 155.662C205.969 155.755 203.32 156.367 200.861 157.464C192.413 161.066 184.416 168.631 181.39 176.106L158.37 233.133C156.479 237.834 156.803 241.562 159.289 243.652C162.891 246.714 170.186 245.615 177.769 240.86L241.46 200.963C252.123 194.28 257.383 184.554 256.933 178.808C256.896 177.658 256.524 176.543 255.861 175.602C255.199 174.661 254.275 173.934 253.204 173.512L212.587 156.383C211.343 155.871 210.005 155.625 208.66 155.662Z" fill="#A020F0"/>
<path d="M163.269 253.792C161.053 253.875 158.868 253.243 157.037 251.991C153.723 249.577 152.894 245.146 154.714 239.545L174.725 177.619C179.354 163.209 198.393 149.79 209.236 153.104L255.834 167.352C257.334 167.745 258.683 168.578 259.706 169.743C260.73 170.908 261.383 172.352 261.58 173.89C262.804 181.456 256.176 192.623 245.963 199.882L179.318 247.56C173.626 251.631 167.899 253.792 163.269 253.792ZM205.616 154.041C195.313 154.041 180.039 165.965 176.13 178.051L156.119 239.995C154.516 244.93 155.146 248.767 157.92 250.802C162.171 253.918 170.438 252.117 178.508 246.353L245.153 198.675C256.23 190.75 261.147 180.123 260.175 174.125C260.028 172.852 259.499 171.654 258.656 170.689C257.813 169.724 256.697 169.037 255.456 168.721L208.804 154.491C207.77 154.183 206.695 154.031 205.616 154.041Z" fill="#A020F0"/>
<path d="M162.261 261.177C160.185 261.245 158.134 260.714 156.353 259.646C152.75 257.359 151.507 252.874 152.912 247.038L169.123 180.249C172.852 164.849 192.539 148.944 204.841 151.43L257.797 162.093C259.484 162.343 261.054 163.101 262.299 164.266C263.545 165.43 264.406 166.947 264.768 168.613C266.731 176.538 260.499 188.426 249.962 197.054L180.849 253.18C174.401 258.35 167.628 261.177 162.261 261.177ZM202.121 152.636C190.612 152.636 173.788 167.046 170.51 180.609L154.299 247.38C153.038 252.568 154.029 256.386 157.091 258.403C161.252 261.033 169.898 260.079 179.822 252.009L248.953 195.901C260.283 186.697 264.786 175.133 263.255 168.883C262.94 167.499 262.214 166.243 261.172 165.279C260.131 164.315 258.823 163.687 257.419 163.48L204.445 152.816C203.678 152.685 202.9 152.624 202.121 152.636Z" fill="#A020F0"/>
<path d="M161.972 269.085C160.027 269.121 158.102 268.675 156.371 267.788C152.39 265.644 150.733 261.123 151.705 255.053L163.125 183.563C165.755 167.064 185.964 148.601 199.762 150.078L259.418 156.401C261.307 156.476 263.127 157.134 264.627 158.286C266.127 159.437 267.233 161.025 267.794 162.831C270.495 170.972 264.713 183.977 254.086 193.722L182.974 258.908C175.86 265.428 168.078 269.085 161.972 269.085ZM198.195 151.465C185.316 151.465 166.962 168.811 164.584 183.779L153.146 255.287C152.3 260.691 153.687 264.672 157.073 266.491C161.918 269.103 171.483 267.427 182.002 257.827L253.078 192.641C264.551 182.122 268.496 169.675 266.407 163.281C265.912 161.746 264.953 160.402 263.663 159.434C262.373 158.467 260.814 157.923 259.202 157.877L199.546 151.555C199.085 151.499 198.622 151.469 198.159 151.465H198.195Z" fill="#A020F0"/>
<path d="M162.333 277.388C160.524 277.415 158.731 277.053 157.074 276.325C152.715 274.38 150.572 269.859 151.04 263.591L156.768 187.562C158.083 170.054 178.58 148.8 193.999 149.124L260.644 150.295C262.755 150.168 264.853 150.707 266.643 151.834C268.433 152.962 269.824 154.622 270.622 156.581C274.063 164.902 268.821 178.916 258.284 189.867L185.911 264.744C178.184 272.777 169.322 277.388 162.333 277.388ZM193.711 150.601C179.301 150.601 159.488 171.243 158.245 187.67L152.517 263.699C152.103 269.301 153.94 273.299 157.686 274.993C164.369 277.983 175.536 273.353 184.849 263.717L257.221 188.841C268.785 176.88 272.027 163.84 269.253 157.139C268.558 155.451 267.353 154.023 265.806 153.054C264.259 152.085 262.448 151.624 260.626 151.736L193.981 150.583L193.711 150.601Z" fill="#A020F0"/>
<path d="M163.523 286.052C161.892 286.068 160.271 285.8 158.732 285.259C153.959 283.458 151.275 279.027 151.203 272.651L150.158 192.407C149.924 173.944 170.566 149.844 187.587 148.727L261.437 143.828C266.841 143.468 271.074 145.629 273.217 149.88C277.54 158.49 273.217 173.134 262.572 185.508L189.749 270.615C181.409 280.342 171.485 286.052 163.523 286.052ZM262.59 145.197H261.491L187.641 150.096C171.593 151.159 151.383 174.827 151.617 192.299L152.644 272.543C152.644 278.396 155.003 282.305 159.218 283.836C166.964 286.646 179.032 280.792 188.614 269.607L261.455 184.445C272.839 171.152 275.325 157.283 271.902 150.438C271.045 148.755 269.712 147.361 268.07 146.429C266.427 145.497 264.546 145.069 262.662 145.197H262.59Z" fill="#A020F0"/>
<path d="M165.468 295.022C164.111 295.035 162.759 294.859 161.451 294.5C156.21 293.041 152.931 288.628 152.229 282.035L143.223 197.973C141.169 178.646 161.649 151.519 180.346 148.763L261.653 136.857C267.831 135.939 272.748 137.974 275.468 142.549C280.619 151.267 277.089 166.83 266.84 180.375L194.449 276.361C185.876 287.889 174.582 295.022 165.468 295.022ZM261.959 138.316L180.652 150.222C162.964 152.816 142.827 179.51 144.79 197.811L153.688 281.873C154.336 287.907 157.146 291.78 161.847 293.077C170.745 295.544 183.696 288.322 193.369 275.497L265.759 179.528C275.648 166.415 279.142 151.519 274.279 143.306C271.847 139.217 267.597 137.488 261.959 138.316Z" fill="#A020F0"/>
<path d="M168.548 304.262C167.49 304.267 166.435 304.171 165.396 303.974C159.614 302.857 155.669 298.571 154.282 291.834L136.27 204.493C132.127 184.428 152.121 154.059 172.546 149.538L261.364 129.581C268.353 128.014 274.081 129.851 277.467 134.768C283.537 143.558 280.962 159.985 271.235 174.737L200.393 282.017C191.459 295.58 178.815 304.262 168.548 304.262ZM261.544 130.301L261.707 131.022L172.889 150.961C153.508 155.32 133.802 185.184 137.729 204.205L155.741 291.528C157.02 297.724 160.46 301.524 165.702 302.533C175.843 304.478 189.622 295.707 199.204 281.207L270.046 173.927C279.466 159.661 282.042 143.918 276.314 135.615C273.234 131.148 268.209 129.563 261.743 131.022L261.544 130.301Z" fill="#A020F0"/>
<path d="M172.78 313.682C172.118 313.683 171.457 313.647 170.799 313.574C164.423 312.89 159.703 308.747 157.542 301.902L129.155 211.986C126.273 202.8 128.308 190.533 134.757 178.321C141.961 164.776 153.111 154.329 163.954 151.051L260.337 121.979C268.19 119.602 274.747 121.205 279.016 126.482C286.13 135.488 284.726 152.258 275.413 168.396L207.417 287.385C198.429 303.181 184.452 313.682 172.78 313.682ZM267.056 122.393C264.923 122.416 262.805 122.749 260.769 123.384L164.332 152.456C153.849 155.626 143.006 165.803 136.035 179.006C129.857 190.714 127.804 202.872 130.632 211.536L159.019 301.47C161.018 307.792 165.161 311.485 171.015 312.115C182.507 313.34 197.006 302.875 206.283 286.664L274.279 167.658C283.068 152.294 284.563 135.74 277.881 127.401C276.59 125.772 274.935 124.471 273.048 123.601C271.161 122.731 269.096 122.317 267.02 122.393H267.056Z" fill="#A020F0"/>
<path d="M178.185 323.157H177.753C174.34 323.116 171.02 322.048 168.224 320.091C165.429 318.134 163.288 315.38 162.082 312.188L121.951 220.488C118.024 211.482 118.871 198.873 124.311 185.995C130.831 170.504 142.323 158.022 154.517 153.429L258.393 114.108C267.165 110.794 274.82 112.055 280.007 117.711C288.149 126.609 287.987 144.152 279.611 161.372L215.848 292.392C207.004 310.585 191.514 323.157 178.185 323.157ZM258.663 114.793L258.915 115.477L155.039 154.816C143.295 159.265 132.038 171.423 125.68 186.571C120.402 199.18 119.537 211.284 123.302 219.893L163.433 311.593C166.261 318.06 171.232 321.554 177.843 321.68C190.757 321.914 205.815 309.63 214.533 291.726L278.206 160.742C286.33 144.08 286.582 127.185 278.855 118.719C274.154 113.568 267.057 112.433 258.897 115.513L258.663 114.793Z" fill="#A020F0"/>
<path d="M184.992 332.613C181.52 332.648 178.106 331.725 175.126 329.946C172.145 328.166 169.712 325.599 168.096 322.527L114.798 230.07C109.737 221.298 109.395 208.456 113.681 194.857C119.247 177.457 130.991 162.885 144.302 156.797L255.491 106.021C265.218 101.59 274.007 102.418 280.258 108.398C289.606 117.404 290.831 135.092 283.356 153.591L225.465 296.841C217.395 316.853 201.383 331.533 186.559 332.559L184.992 332.613ZM267.181 104.706C263.34 104.788 259.561 105.697 256.103 107.372L144.915 158.13C131.964 164.056 120.526 178.303 115.086 195.307C110.854 208.51 111.214 220.92 116.059 229.332L169.357 321.806C170.952 324.885 173.433 327.416 176.48 329.072C179.526 330.729 182.999 331.435 186.45 331.1C200.734 330.11 216.225 315.79 224.096 296.283L281.987 153.05C289.192 135.38 288.021 117.873 279.231 109.461C276.002 106.343 271.669 104.633 267.181 104.706Z" fill="#A020F0"/>
<path d="M193.332 341.908C189.892 341.937 186.496 341.133 183.435 339.565C180.374 337.997 177.737 335.711 175.752 332.902L107.81 240.824C101.524 232.304 99.7585 219.209 102.965 204.926C107.216 186.085 119.176 168.901 133.369 161.318L251.511 97.8796C262.066 92.2238 272.387 92.476 279.808 98.7262C290.345 107.498 293.101 125.744 286.833 145.179L236.633 300.714C229.698 322.185 213.577 339.008 197.438 341.656C196.078 341.844 194.705 341.928 193.332 341.908ZM251.853 98.456L252.213 99.1045L134.054 162.543C120.202 169.982 108.566 186.715 104.406 205.16C101.29 219.047 102.965 231.692 108.999 239.869L176.941 331.947C179.147 335.144 182.244 337.621 185.846 339.072C189.449 340.523 193.399 340.882 197.204 340.107C212.821 337.549 228.455 321.122 235.228 300.156L285.428 144.639C291.516 125.78 289.03 108.165 278.871 99.7529C271.81 93.8809 262.354 93.6468 252.213 99.0865L251.853 98.456Z" fill="#A020F0"/>
<path d="M203.257 350.914C199.862 350.927 196.502 350.224 193.398 348.849C190.294 347.473 187.516 345.458 185.245 342.934L101.11 252.603C93.4548 244.39 90.3027 230.989 92.2119 216.003C94.9318 195.613 106.496 176.376 121.698 166.92L246.324 89.5576C257.852 82.3527 269.577 82.0105 278.493 88.4589C290.291 96.9786 294.704 115.603 289.841 135.903L249.35 303.596C243.946 326.327 227.915 345.384 210.606 349.923C208.209 350.571 205.739 350.904 203.257 350.914ZM247.098 90.8185L122.472 168.271C107.648 177.475 96.3367 196.334 93.6529 216.291C91.7076 230.881 94.8057 243.796 102.173 251.703L186.307 342.016C189.264 345.256 193.079 347.593 197.308 348.757C201.538 349.92 206.011 349.862 210.209 348.59C227.033 344.177 242.523 325.571 247.891 303.326L288.418 135.525C293.173 115.819 288.94 97.7892 277.611 89.6117C269.199 83.5236 258.068 83.9558 246.99 90.7824L247.098 90.8185Z" fill="#A020F0"/>
<path d="M214.874 359.433C208.199 359.448 201.746 357.035 196.718 352.643L94.8595 265.644C85.6193 257.773 80.738 244.156 81.4585 228.305C82.4312 206.69 93.3645 185.274 109.323 173.944L239.785 81.38C252.25 72.536 265.506 71.2572 276.152 77.7776C289.517 86.0812 295.695 104.508 292.363 125.87L263.777 305.433C259.941 329.569 244.901 350.373 226.366 357.2C222.701 358.63 218.808 359.386 214.874 359.433ZM261.526 75.1658C253.96 75.4113 246.658 78.0048 240.632 82.5868L110.17 175.151C94.5713 186.211 83.8721 207.105 82.9175 228.377C82.233 243.759 86.9342 256.944 95.8142 264.527L197.673 351.526C205.454 358.173 215.451 359.721 225.79 355.921C243.802 349.274 258.482 328.903 262.246 305.289L290.85 125.726C294.146 104.958 288.22 87.0898 275.359 79.1104C271.212 76.5176 266.417 75.1502 261.526 75.1658Z" fill="#A020F0"/>
<path d="M228.275 367.341C221.877 367.332 215.63 365.392 210.353 361.775L89.1671 279.892C78.1617 272.453 71.4252 258.547 70.7407 241.778C69.7861 219.011 79.7468 195.721 96.318 182.446L231.751 73.4008C245.098 62.5935 259.994 60.2879 272.603 66.9163C287.481 74.7336 295.694 93.2862 294.055 115.315L279.79 306.244C277.988 331.136 263.831 354.084 244.702 363.36C239.598 365.913 233.981 367.274 228.275 367.341ZM232.219 73.9772L232.688 74.5536L97.2546 183.581C81.0437 196.586 71.2811 219.389 72.2177 241.724C72.9022 257.935 79.4226 271.48 90.0137 278.667L211.199 360.55C220.854 367.071 232.544 367.593 244.071 362.009C262.75 353.003 276.493 330.506 278.295 306.172L292.56 115.243C294.163 93.8085 286.256 75.7963 271.9 68.2672C259.832 61.927 245.53 64.2325 232.652 74.5895L232.219 73.9772Z" fill="#A020F0"/>
<path d="M243.568 374.401C237.549 374.398 231.623 372.913 226.313 370.078L84.251 295.346C71.1742 288.465 62.3663 274.29 60.0968 256.458C57.0888 232.88 65.9687 207.825 82.738 192.533L222.098 65.7816C236.219 52.9209 252.827 49.2463 267.687 55.6947C284.204 62.8995 294.705 81.38 294.957 104.003L297.659 305.505C298.019 331.226 285.555 355.633 265.939 367.665C259.251 371.941 251.506 374.273 243.568 374.401ZM222.584 66.3939L223.089 66.9342L83.7287 193.704C67.3196 208.636 58.5117 233.222 61.5558 256.332C63.7713 273.696 72.363 287.457 84.9715 294.157L227.033 368.908C238.939 375.158 252.484 374.311 265.201 366.53C284.384 354.768 296.56 330.866 296.236 305.649L293.462 104.021C293.174 81.9924 283.051 63.9983 267.074 57.0456C252.791 50.8494 236.742 54.4159 223.071 66.8622L222.584 66.3939Z" fill="#A020F0"/>
<path d="M260.607 380.364C255.184 380.37 249.809 379.337 244.775 377.32L80.306 312.044C64.8516 305.902 53.6481 291.474 49.6854 272.417C47.1017 260.379 47.49 247.893 50.8168 236.039C54.1435 224.186 60.3085 213.321 68.7783 204.385L210.606 58.649C225.142 43.753 244 38.3854 261.04 44.2393C279.664 50.6876 292.273 68.5377 294.776 91.9895L317.382 303.038C320.138 328.921 309.42 355.111 290.093 369.791C281.695 376.462 271.331 380.178 260.607 380.364ZM211.2 59.1713L211.723 59.6757L69.7509 205.394C61.4568 214.149 55.4188 224.792 52.1582 236.404C48.8977 248.015 48.5126 260.245 51.0363 272.039C54.999 290.573 65.8603 304.623 80.8464 310.585L245.333 375.915C259.635 381.606 275.63 378.959 289.211 368.71C308.141 354.3 318.625 328.651 315.905 303.29L293.462 92.1876C291.012 69.3302 278.782 51.9305 260.716 45.6803C244.18 39.9704 225.898 45.194 211.777 59.6757L211.2 59.1713Z" fill="#A020F0"/>
<path d="M279.629 385.154C274.992 385.153 270.379 384.505 265.921 383.227L77.5145 329.803C59.3223 324.634 45.3989 309.99 39.2928 289.654C35.6361 277.414 35.0932 264.455 37.7133 251.952C40.3335 239.449 46.0337 227.798 54.2969 218.056L197.331 52.2363C212.245 34.9446 232.941 27.6857 252.701 32.8191C273.378 38.2228 288.725 55.6406 293.606 79.5066L338.961 298.75C344.364 324.886 336.025 351.994 317.166 369.52C306.161 379.769 292.994 385.154 279.629 385.154ZM197.89 52.6685L198.448 53.1369L55.4137 219.011C47.3049 228.568 41.7116 239.999 39.1417 252.267C36.5719 264.534 37.1067 277.249 40.6977 289.258C46.6598 309.071 60.2229 323.391 77.9288 328.416L266.318 381.84C283.591 386.74 301.766 381.84 316.175 368.475C334.638 351.31 342.815 324.706 337.52 299.093L292.165 79.8128C287.338 56.5051 272.46 39.4657 252.34 34.2422C233.121 29.2708 212.984 36.3495 198.448 53.1908L197.89 52.6685Z" fill="#A020F0"/>
<path d="M300.523 388.451C296.946 388.447 293.377 388.122 289.859 387.478L76.1635 348.734C54.8372 344.861 37.7437 330.127 29.332 308.315C24.5928 296.02 23.0634 282.72 24.888 269.67C26.7127 256.62 31.8313 244.25 39.761 233.727L182.057 46.7245C197.097 26.9112 219.558 17.5269 242.181 21.5076C265.165 25.4882 283.447 42.3296 291.102 66.5379L362.43 292.23C366.44 304.861 367.134 318.311 364.447 331.287C361.759 344.264 355.78 356.332 347.084 366.332C334.458 380.688 317.904 388.451 300.523 388.451ZM231.986 22.0479C213.38 22.0479 195.62 31.1801 183.138 47.6251L40.8598 234.591C33.0828 244.915 28.0642 257.05 26.2773 269.851C24.4904 282.652 25.9942 295.697 30.6469 307.756C38.9324 329.083 55.6117 343.474 76.4157 347.257L290.13 386.001C310.772 389.73 331.125 382.2 345.967 365.323C354.489 355.511 360.348 343.675 362.981 330.948C365.615 318.222 364.935 305.032 361.007 292.644L289.589 66.9341C282.096 43.2481 264.246 26.803 241.821 22.8944C238.573 22.3364 235.283 22.0532 231.986 22.0479Z" fill="#A020F0"/>
<path d="M322.769 390C320.769 390 318.788 390 316.771 389.73L76.4706 368.709C51.9561 366.566 30.7018 351.526 19.6424 328.488C13.7115 316.31 11.0887 302.786 12.0372 289.273C12.9857 275.76 17.4721 262.735 25.046 251.505L164.406 42.3477C179.23 20.1207 203.33 8.12459 228.889 10.4121C254.449 12.6997 276.117 28.5864 286.852 53.0648L387.72 283.242C393.222 295.618 395.375 309.224 393.962 322.694C392.548 336.164 387.62 349.027 379.669 359.992C373.272 369.175 364.767 376.693 354.867 381.914C344.967 387.135 333.96 389.908 322.769 390ZM222.819 11.619C200.052 11.619 178.996 23.1287 165.631 43.1762L26.2708 252.315C18.8331 263.327 14.4191 276.1 13.4708 289.355C12.5224 302.61 15.073 315.881 20.8672 327.84C31.6745 350.409 52.5145 365.143 76.5247 367.251L316.879 388.271C340.889 390.36 363.926 379.481 378.516 359.127C386.316 348.371 391.152 335.754 392.54 322.539C393.928 309.325 391.819 295.978 386.423 283.836L285.555 53.6593C275.054 29.6851 253.836 14.0326 228.817 11.8711C226.818 11.709 224.783 11.619 222.819 11.619Z" fill="#A020F0"/>
<path d="M346.759 389.64H78.7568C64.9313 389.635 51.3505 385.992 39.3786 379.077C27.4068 372.161 17.4655 362.218 10.5533 350.244C3.64113 338.271 0.00149453 324.689 4.60174e-07 310.863C-0.00149361 297.038 3.63521 283.455 10.5448 271.48L144.555 39.376C151.404 27.3468 161.333 17.3587 173.321 10.4385C185.31 3.51835 198.925 -0.0841169 212.767 0.00149093C226.606 -0.0809106 240.217 3.52302 252.202 10.443C264.187 17.363 274.114 27.3494 280.961 39.376L414.971 271.48C421.881 283.455 425.518 297.038 425.516 310.863C425.515 324.689 421.875 338.271 414.963 350.244C408.051 362.218 398.109 372.161 386.137 379.077C374.166 385.992 360.585 389.635 346.759 389.64ZM145.185 39.7543L145.816 40.1145L11.8237 272.219C5.04369 283.969 1.47524 297.297 1.47674 310.863C1.47825 324.43 5.04966 337.757 11.8322 349.506C18.6148 361.255 28.3697 371.012 40.1171 377.798C51.8644 384.583 65.1905 388.158 78.7568 388.163H346.759C360.326 388.158 373.652 384.583 385.399 377.798C397.146 371.012 406.901 361.255 413.684 349.506C420.466 337.757 424.038 324.43 424.039 310.863C424.041 297.297 420.472 283.969 413.692 272.219L279.7 40.0605C272.917 28.2995 263.157 18.5323 251.401 11.7411C239.645 4.95004 226.308 1.37461 212.731 1.37461C199.154 1.37461 185.817 4.95004 174.061 11.7411C162.305 18.5323 152.545 28.2995 145.762 40.0605L145.185 39.7543Z" fill="#A020F0"/>
</g>
</svg>
